<svg xmlns="http://www.w3.org/2000/svg" width="250" height="150" version="1.0" viewBox="0 0 187.5 112.5"><path fill="#264653" d="M4.52 56.293c0-2.469.78-4.457 2.343-5.969 1.57-1.52 3.766-2.281 6.578-2.281 2.438 0 4.285.547 5.547 1.64 1.27 1.086 1.906 2.45 1.906 4.094 0 .906-.324 1.719-.969 2.438-.636.71-1.511 1.062-2.625 1.062-.898 0-1.64-.305-2.234-.922-.586-.625-.875-1.312-.875-2.062 0-.875.055-1.625.172-2.25.125-.625.172-1.11.14-1.453-.023-.344-.246-.516-.671-.516-.657 0-1.219.555-1.688 1.656-.46 1.106-.68 2.602-.656 4.485.031 1.773.344 3.199.937 4.28.594 1.075 1.473 1.595 2.641 1.563.8 0 1.399-.172 1.797-.515.394-.344.707-.739.937-1.188.227-.457.461-.86.704-1.203.238-.344.609-.516 1.109-.516.445 0 .785.141 1.016.422.226.282.343.594.343.938 0 .898-.355 1.68-1.062 2.344-.7.668-1.637 1.187-2.813 1.562-1.168.363-2.43.547-3.78.547-1.407 0-2.79-.27-4.142-.813-1.355-.539-2.468-1.414-3.343-2.625-.875-1.207-1.313-2.78-1.313-4.718zm26.996 8.156c-2.656 0-4.761-.723-6.312-2.172-1.555-1.445-2.328-3.457-2.328-6.031 0-2.602.773-4.617 2.328-6.047 1.55-1.438 3.656-2.156 6.312-2.156 2.657 0 4.758.718 6.313 2.156 1.55 1.43 2.328 3.445 2.328 6.047 0 2.574-.777 4.586-2.328 6.031-1.555 1.45-3.656 2.172-6.313 2.172zm-2.062-8.203c0 1.094.055 2.101.172 3.015.125.918.336 1.641.64 2.172.301.532.72.797 1.25.797.563 0 .993-.265 1.297-.797.301-.53.504-1.254.61-2.172.113-.914.172-1.921.172-3.015 0-1.113-.059-2.117-.172-3.016-.106-.906-.309-1.625-.61-2.156-.304-.531-.734-.797-1.297-.797-.53 0-.949.266-1.25.797-.304.531-.515 1.25-.64 2.156a23.496 23.496 0 0 0-.172 3.016zm12.208 7.219c0-.29.067-.508.204-.657.132-.156.296-.343.484-.562.187-.227.344-.582.469-1.063.132-.476.203-1.18.203-2.109 0-1.219.004-2.098.015-2.64.02-.551.032-.954.032-1.204v-.86c0-.706-.118-1.202-.344-1.484-.23-.28-.461-.5-.688-.656-.218-.164-.328-.422-.328-.765 0-.395.13-.664.39-.813.27-.144.65-.27 1.142-.375a14.87 14.87 0 0 0 1.78-.516c.845-.32 1.423-.609 1.735-.859.32-.25.563-.453.719-.61.164-.163.422-.25.766-.25.476 0 .796.216.953.641.164.43.25.934.25 1.516v.312c0 .375.062.563.187.563.133 0 .348-.148.64-.453.29-.313.665-.664 1.126-1.063a7.583 7.583 0 0 1 1.672-1.047c.656-.312 1.394-.468 2.218-.468 1.25 0 2.192.265 2.829.797a4.002 4.002 0 0 1 1.296 2c.227.793.344 1.601.344 2.421v5.813c0 .93.063 1.633.188 2.11.132.48.297.835.484 1.062.188.219.344.406.469.562.133.149.203.368.203.657 0 .398-.117.656-.344.78-.219.134-.515.204-.89.204a8.17 8.17 0 0 1-1.297-.125 9.431 9.431 0 0 0-2.5-.047c-.305.04-.625.086-.97.14-.53.052-.964-.07-1.296-.359-.336-.289-.5-.703-.5-1.234v-6.531c0-1.282-.137-2.25-.406-2.907-.262-.664-.735-1-1.422-1-.617 0-1.11.313-1.484.938-.368.625-.547 1.906-.547 3.844v1.906c0 .93.062 1.633.187 2.11.133.48.297.835.485 1.062.187.219.343.406.468.562.133.149.203.368.203.657 0 .398-.152.656-.453.78-.304.134-.683.204-1.14.204-.5 0-1.028-.043-1.578-.125a10.554 10.554 0 0 0-1.407-.11c-.398 0-.87.036-1.422.11a10.3 10.3 0 0 1-1.53.125c-.45 0-.829-.07-1.141-.203-.305-.125-.454-.383-.454-.781zm20.36-12c0-.688.328-1.032.984-1.032h1.156l.047-1.672c0-1.437.32-2.597.969-3.484a5.747 5.747 0 0 1 2.469-1.937c1-.414 1.988-.625 2.968-.625 1.52 0 2.617.14 3.297.421.676.274 1.067.672 1.172 1.204.102.53.023 1.21-.234 2.03-.274.806-.547 1.329-.828 1.579-.274.25-.594.375-.97.375-.343 0-.62-.176-.827-.531a7.388 7.388 0 0 1-.532-1.266 5.08 5.08 0 0 0-.593-1.25c-.243-.351-.586-.531-1.032-.531-.43 0-.804.148-1.125.437-.312.293-.468.715-.468 1.266 0 .531.132.98.406 1.344.281.355.586.726.922 1.11.332.386.566.898.703 1.53h1.312c.664 0 1 .344 1 1.032 0 .668-.336 1-1 1h-1.234v6.53c0 .962.063 1.684.188 2.173.132.492.296.851.484 1.078.187.219.344.406.469.562.132.149.203.368.203.657 0 .398-.153.656-.453.78-.305.134-.684.204-1.141.204-.5 0-1.023-.043-1.562-.125a10.626 10.626 0 0 0-1.422-.11c-.399 0-.868.036-1.407.11a10.3 10.3 0 0 1-1.53.125c-.462 0-.84-.07-1.141-.203-.305-.125-.454-.383-.454-.781 0-.29.063-.508.188-.657.133-.156.297-.343.484-.562.188-.227.344-.582.469-1.063.133-.476.203-1.18.203-2.109v-6.61h-1.156c-.656 0-.984-.331-.984-1zm23.051 12.984c-2.656 0-4.762-.723-6.312-2.172-1.555-1.445-2.328-3.457-2.328-6.031 0-2.602.773-4.617 2.328-6.047 1.55-1.438 3.656-2.156 6.312-2.156s4.758.718 6.313 2.156c1.55 1.43 2.328 3.445 2.328 6.047 0 2.574-.778 4.586-2.328 6.031-1.555 1.45-3.657 2.172-6.313 2.172zm-2.062-8.203c0 1.094.054 2.101.172 3.015.125.918.335 1.641.64 2.172.3.532.719.797 1.25.797.563 0 .992-.265 1.297-.797.3-.53.504-1.254.61-2.172a24.69 24.69 0 0 0 .171-3.015c0-1.113-.058-2.117-.172-3.016-.105-.906-.308-1.625-.609-2.156-.305-.531-.734-.797-1.297-.797-.531 0-.95.266-1.25.797-.305.531-.515 1.25-.64 2.156a23.496 23.496 0 0 0-.172 3.016zm12.209 7.219c0-.29.066-.508.202-.657.133-.156.297-.343.485-.562.187-.227.343-.582.468-1.063.133-.476.203-1.18.203-2.109 0-1.219.004-2.098.016-2.64.02-.551.031-.954.031-1.204v-.86c0-.706-.117-1.202-.343-1.484-.23-.28-.461-.5-.688-.656-.219-.164-.328-.422-.328-.765 0-.395.129-.664.39-.813.27-.144.649-.27 1.141-.375a14.87 14.87 0 0 0 1.781-.516c.844-.32 1.422-.609 1.735-.859.32-.25.562-.453.719-.61.164-.163.421-.25.765-.25.477 0 .797.216.953.641.164.43.25.934.25 1.516v.156c0 .668.008.996.032.985.03-.02.218-.32.562-.907a4.419 4.419 0 0 1 1.89-1.765c.813-.414 1.587-.625 2.329-.625 1.457 0 2.398.312 2.828.937.426.625.441 1.54.047 2.735-.324.949-.617 1.605-.875 1.968-.25.356-.492.532-.719.532-.273 0-.57-.157-.89-.47a11.25 11.25 0 0 0-1.047-.937c-.387-.312-.86-.468-1.422-.468-.313 0-.688.109-1.125.328-.438.21-.82.593-1.14 1.156-.313.555-.47 1.336-.47 2.344v2.906c0 .93.063 1.633.188 2.11.133.48.297.835.484 1.062.188.219.344.406.469.562.133.149.203.368.203.657 0 .398-.152.656-.453.78-.305.134-.684.204-1.14.204-.5 0-1.028-.043-1.579-.125a10.554 10.554 0 0 0-1.406-.11c-.398 0-.871.036-1.422.11-.543.082-1.055.125-1.531.125-.45 0-.828-.07-1.14-.203-.305-.125-.454-.383-.454-.781zm21.792.75c-.399 0-.871.035-1.422.109-.543.082-1.055.125-1.531.125-.45 0-.829-.07-1.141-.203-.305-.125-.453-.383-.453-.781 0-.29.066-.508.203-.657.133-.156.289-.343.469-.562.187-.227.347-.582.484-1.063.133-.476.203-1.18.203-2.109 0-1.219.004-2.098.016-2.64.008-.551.015-.954.015-1.204v-.86c0-.706-.117-1.202-.343-1.484a3.104 3.104 0 0 0-.672-.656c-.219-.164-.328-.422-.328-.765 0-.395.129-.664.39-.813.27-.144.649-.27 1.14-.375a14.14 14.14 0 0 0 1.767-.516c.851-.32 1.437-.609 1.75-.859.32-.25.562-.453.718-.61.164-.163.422-.25.766-.25.477 0 .797.216.953.641.156.43.234.934.234 1.516v.312c0 .375.067.563.204.563.132 0 .347-.148.64-.453.29-.313.664-.664 1.125-1.063a7.583 7.583 0 0 1 1.672-1.047c.656-.312 1.395-.468 2.219-.468.82 0 1.5.156 2.031.468.531.305.945.653 1.25 1.047.313.399.555.75.734 1.063.188.305.332.453.438.453.187 0 .426-.145.719-.438.289-.289.66-.64 1.11-1.046a6.666 6.666 0 0 1 1.655-1.079c.657-.312 1.438-.468 2.344-.468 1.238 0 2.176.265 2.813.797a3.853 3.853 0 0 1 1.296 2c.227.793.344 1.601.344 2.421v5.813c0 .93.067 1.633.203 2.11.133.48.285.835.453 1.062.176.219.336.406.485.562.144.149.219.368.219.657 0 .398-.118.656-.344.78-.23.134-.528.204-.89.204-.376 0-.81-.043-1.298-.125a9.516 9.516 0 0 0-2.515-.047c-.305.04-.625.086-.97.14-.53.052-.964-.07-1.296-.359-.336-.289-.5-.703-.5-1.234v-6.531c0-1.282-.125-2.25-.375-2.907-.25-.664-.726-1-1.422-1-.554 0-1.031.247-1.437.735-.399.492-.594 1.48-.594 2.969v2.984c0 .93.066 1.633.203 2.11.133.48.297.835.484 1.062.188.219.344.406.47.562.132.149.202.368.202.657 0 .398-.117.656-.343.78-.22.134-.516.204-.891.204s-.809-.043-1.297-.125a9.431 9.431 0 0 0-1.406-.11c-.43 0-.797.02-1.11.063-.304.04-.625.086-.968.14-.532.052-.965-.07-1.297-.359-.324-.289-.485-.703-.485-1.234v-6.531c0-1.282-.136-2.25-.406-2.907-.262-.664-.742-1-1.437-1-.606 0-1.094.313-1.47.938-.374.625-.562 1.906-.562 3.844v1.906c0 .93.067 1.633.204 2.11.132.48.289.835.468 1.062.188.219.348.406.485.562.133.149.203.368.203.657 0 .398-.156.656-.469.78-.305.134-.68.204-1.125.204-.5 0-1.027-.043-1.578-.125a10.554 10.554 0 0 0-1.406-.11zm31.14 0a10.6 10.6 0 0 0-1.422.109c-.543.082-1.055.125-1.531.125-.45 0-.829-.07-1.141-.203-.305-.125-.453-.383-.453-.781 0-.29.066-.508.203-.657.133-.156.29-.343.469-.562.187-.227.347-.582.484-1.063.133-.476.203-1.18.203-2.109 0-1.219.004-2.098.016-2.64.008-.551.015-.954.015-1.204v-.86c0-.706-.117-1.202-.343-1.484a3.104 3.104 0 0 0-.672-.656c-.219-.164-.328-.422-.328-.765 0-.395.129-.664.39-.813.27-.144.649-.27 1.141-.375a14.14 14.14 0 0 0 1.766-.516c.851-.32 1.437-.609 1.75-.859.32-.25.562-.453.718-.61.164-.163.422-.25.766-.25.477 0 .797.216.953.641.156.43.234.934.234 1.516v8.875c0 .93.067 1.633.204 2.11.132.48.289.835.468 1.062.188.219.348.406.485.562.133.149.203.368.203.657 0 .398-.156.656-.469.78-.305.134-.68.204-1.125.204-.512 0-1.039-.043-1.578-.125a10.554 10.554 0 0 0-1.406-.11zm-4.547-17.282c-.262-.8-.121-1.664.422-2.593.539-.926 1.367-1.68 2.484-2.266.926-.477 1.774-.719 2.547-.719 1.176 0 1.937.48 2.281 1.438.29.824.16 1.687-.39 2.593-.543.899-1.371 1.653-2.485 2.266-.96.469-1.824.703-2.594.703-1.136 0-1.89-.472-2.265-1.422zm10.188 2.313c0-.406.129-.672.39-.797a6.92 6.92 0 0 1 1.126-.406c.476-.133 1.035-.399 1.672-.797.851-.531 1.46-1.04 1.828-1.531.375-.489.664-.883.875-1.188.218-.312.5-.469.843-.469.477 0 .766.243.86.72.094.48.14 1.01.14 1.593v1.469c0 .293.145.437.438.437h.64c.665 0 1 .336 1 1 0 .688-.335 1.031-1 1.031h-.64c-.293 0-.438.149-.438.438v4.672c0 1.699.02 2.933.063 3.703.039.773.242 1.34.61 1.703.238.219.437.355.593.406.164.055.285.121.36.203.081.075.124.258.124.547 0 .512-.289 1.055-.859 1.625-.562.563-1.562.844-3 .844-1.68 0-2.812-.602-3.406-1.813-.594-1.207-.89-2.78-.89-4.718l.03-5.766c0-.719-.117-1.219-.343-1.5a3.104 3.104 0 0 0-.672-.656c-.23-.156-.344-.406-.344-.75zm10.321 17.672c0-.606.191-1.168.578-1.688.383-.523.945-.781 1.687-.781.696 0 1.204.117 1.516.36.32.238.555.53.703.874.145.344.266.688.36 1.032.093.351.222.648.39.89.176.239.477.36.906.36.758 0 1.301-.352 1.625-1.047.32-.688.32-1.524 0-2.5-.261-.82-.578-1.75-.953-2.782a153.09 153.09 0 0 0-1.14-3.046c-.387-1-.727-1.864-1.016-2.594-.293-.727-.477-1.211-.547-1.453-.512-1.227-.976-2.149-1.39-2.766-.407-.625-.758-1.066-1.047-1.328a11.75 11.75 0 0 1-.688-.672c-.156-.176-.234-.422-.234-.734 0-.395.16-.66.484-.797.32-.133.707-.203 1.156-.203.5 0 1.024.043 1.579.125.562.074 1.046.11 1.453.11.5 0 1.066-.036 1.703-.11a13.742 13.742 0 0 1 1.75-.125c.531 0 .96.07 1.297.203.332.137.5.402.5.797 0 .375-.118.64-.344.797-.219.156-.328.476-.328.953 0 .449.078 1.027.234 1.734.156.7.36 1.406.61 2.125.257.719.492 1.344.703 1.875.238.586.492.57.765-.047.258-.55.508-1.195.75-1.937.239-.75.442-1.469.61-2.157.175-.687.265-1.218.265-1.593 0-.477-.125-.817-.375-1.016-.25-.195-.375-.484-.375-.86 0-.343.102-.57.313-.687a1.42 1.42 0 0 1 .719-.187c.32 0 .66.043 1.015.125.352.074.649.11.89.11.239 0 .536-.036.891-.11.364-.082.692-.125.985-.125.289 0 .52.054.687.156.176.105.266.32.266.64 0 .325-.078.575-.234.75a9.296 9.296 0 0 1-.704.657c-.304.262-.664.7-1.078 1.312-.406.606-.851 1.532-1.328 2.782-.074.242-.246.734-.515 1.484-.262.742-.579 1.617-.954 2.625-.375 1-.757 2.016-1.14 3.047-.387 1.023-.735 1.93-1.047 2.719-.75 1.78-1.75 3.289-3 4.53-1.242 1.25-2.766 1.876-4.578 1.876a6.125 6.125 0 0 1-2.047-.36 3.538 3.538 0 0 1-1.672-1.171c-.437-.543-.656-1.266-.656-2.172zm0 0"/></svg>